{"title":"Bigg Boss Season-8 420p DTHRiP [Episode-1] (Part-1)","uid":11079760,"size":286039862,"categoryP":"video","categoryS":"tv_shows","magnet":"?xt=urn:btih:5221ebac15885391722c9fc16196a2d1402f52a8&amp;dn=Bigg+Boss+Season-8+420p+DTHRiP+%5BEpisode-1%5D+%28Part-1%29&amp;tr=udp%3A%2F%2Ftracker.openbittorrent.com%3A80&amp;tr=udp%3A%2F%2Fopen.demonii.com%3A1337&amp;tr=udp%3A%2F%2Ftracker.coppersurfer.tk%3A6969&amp;tr=udp%3A%2F%2Fexodus.desync.com%3A6969","seeders":0,"leechers":0,"uploader":"t0ny5tark","files":-1,"time":1411347581,"description":"****************************\n\nBigg Boss 8 Season - 8 Episode-1 DTHRIP 420p (Part-1)\n\n420p || Hindi || 275MB || 45 Min || Part-1\n\n****************************\n\nBigg Boss 8 is the eighth season of the Indian reality television show Bigg Boss, which will be broadcast on the TV channel Colors from 21 September 2014.\n\n****************************\n\nScreens: &lt;a href=&quot;\nhttp://i.imgur.com/ldYmKKr.png&quot; rel=&quot;nofollow&quot; target=&quot;_NEW&quot;&gt;\nhttp://i.imgur.com/ldYmKKr.png&lt;/a&gt; &lt;a href=&quot;\nhttp://i.imgur.com/QsufywB.png&quot; rel=&quot;nofollow&quot; target=&quot;_NEW&quot;&gt;\nhttp://i.imgur.com/QsufywB.png&lt;/a&gt; &lt;a href=&quot;\nhttp://i.imgur.com/DyonVJ8.png&quot; rel=&quot;nofollow&quot; target=&quot;_NEW&quot;&gt;\nhttp://i.imgur.com/DyonVJ8.png&lt;/a&gt; &lt;a href=&quot;\nhttp://i.imgur.com/IbXLydr.png&quot; rel=&quot;nofollow&quot; target=&quot;_NEW&quot;&gt;\nhttp://i.imgur.com/IbXLydr.png&lt;/a&gt;\n\n****************************\n\nInfo:\nGeneral\nComplete name : Bigg Boss Season-8 420p DTHRiP [Episode-1] [TonyStark].mp4\nFormat : MPEG-4\nFormat profile : Base Media\nCodec ID : isom\nFile size : 271 MiB\nDuration : 45mn 27s\nOverall bit rate mode : Variable\nOverall bit rate : 832 Kbps\nWriting application : Lavf56.4.101\n\nVideo\nID : 1\nFormat : AVC\nFormat/Info : Advanced Video Codec\nFormat profile : &lt;a class=&quot;__cf_email__&quot; href=&quot;/cdn-cgi/l/email-protection&quot; data-cfemail=&quot;eda5848a85ada1dec3dd&quot;&gt;[email&amp;#160;protected]&lt;/a&gt;&lt;script data-cfhash='f9e31' type=&quot;text/javascript&quot;&gt;\n/* &lt;![CDATA[ */!function(){try{var t=&quot;currentScript&quot;in document?document.currentScript:function(){for(var t=document.getElementsByTagName(&quot;script&quot;),e=t.length;e--;)if(t[e].getAttribute(&quot;data-cfhash&quot;))return t[e]}();if(t&amp;&amp;t.previousSibling){var e,r,n,i,c=t.previousSibling,a=c.getAttribute(&quot;data-cfemail&quot;);if(a){for(e=&quot;&quot;,r=parseInt(a.substr(0,2),16),n=2;a.length-n;n+=2)i=parseInt(a.substr(n,2),16)^r,e+=String.fromCharCode(i);e=document.createTextNode(e),c.parentNode.replaceChild(e,c)}t.parentNode.removeChild(t);}}catch(u){}}()/* ]]&gt; */&lt;/script&gt;\nFormat settings, CABAC : Yes\nFormat settings, ReFrames : 4 frames\nCodec ID : avc1\nCodec ID/Info : Advanced Video Coding\nDuration : 45mn 27s\nBit rate : 700 Kbps\nWidth : 848 pixels\nHeight : 480 pixels\nDisplay aspect ratio : 16:9\nFrame rate mode : Constant\nFrame rate : 25.000 fps\nColor space : YUV\nChroma subsampling : 4:2:0\nBit depth : 8 bits\nScan type : Progressive\nBits/(Pixel*Frame) : 0.069\nStream size : 227 MiB (84%)\nWriting library : x264 core 142 r2479 dd79a61\n\nAudio\nID : 2\nFormat : AAC\nFormat/Info : Advanced Audio Codec\nFormat profile : LC\nCodec ID : 40\nDuration : 45mn 27s\nDuration_LastFrame : -3ms\nBit rate mode : Variable\nBit rate : 128 Kbps\nMaximum bit rate : 800 Kbps\nChannel(s) : 2 channels\nChannel positions : Front: L R\nSampling rate : 44.1 KHz\nCompression mode : Lossy\nStream size : 41.6 MiB (15%)\n\n****************************","torrent":{"xt":"urn:btih:5221ebac15885391722c9fc16196a2d1402f52a8","amp;dn":"Bigg+Boss+Season-8+420p+DTHRiP+%5BEpisode-1%5D+%28Part-1%29","amp;tr":["udp%3A%2F%2Ftracker.openbittorrent.com%3A80","udp%3A%2F%2Fopen.demonii.com%3A1337","udp%3A%2F%2Ftracker.coppersurfer.tk%3A6969","udp%3A%2F%2Fexodus.desync.com%3A6969"],"infoHash":"5221ebac15885391722c9fc16196a2d1402f52a8","infoHashBuffer":{"type":"Buffer","data":[82,33,235,172,21,136,83,145,114,44,159,193,97,150,162,209,64,47,82,168]},"announce":[],"urlList":[]}}